<mxfile host="app.diagrams.net" modified="2021-03-09T02:15:25.306Z" agent="5.0 (Windows NT 6.1; Win64; x64) AppleWebKit/537.36 (KHTML, like Gecko) Chrome/87.0.4280.88 Safari/537.36" etag="HGJtOgxDSkECO4im3YqM" version="14.4.4" type="github">
  <diagram id="C5RBs43oDa-KdzZeNtuy" name="Page-1">
    <mxGraphModel dx="1466" dy="796" grid="1" gridSize="10" guides="1" tooltips="1" connect="1" arrows="1" fold="1" page="1" pageScale="1" pageWidth="827" pageHeight="1169" math="0" shadow="0">
      <root>
        <mxCell id="WIyWlLk6GJQsqaUBKTNV-0" />
        <mxCell id="WIyWlLk6GJQsqaUBKTNV-1" parent="WIyWlLk6GJQsqaUBKTNV-0" />
        <mxCell id="SEaOPAh_OnX27pPv8bRk-22" style="edgeStyle=orthogonalEdgeStyle;rounded=0;orthogonalLoop=1;jettySize=auto;html=1;exitX=0.5;exitY=1;exitDx=0;exitDy=0;entryX=0.5;entryY=0;entryDx=0;entryDy=0;" edge="1" parent="WIyWlLk6GJQsqaUBKTNV-1" source="SEaOPAh_OnX27pPv8bRk-0" target="SEaOPAh_OnX27pPv8bRk-21">
          <mxGeometry relative="1" as="geometry" />
        </mxCell>
        <mxCell id="SEaOPAh_OnX27pPv8bRk-0" value="输入所有customers_id" style="rounded=1;whiteSpace=wrap;html=1;" vertex="1" parent="WIyWlLk6GJQsqaUBKTNV-1">
          <mxGeometry x="220" width="120" height="60" as="geometry" />
        </mxCell>
        <mxCell id="SEaOPAh_OnX27pPv8bRk-9" style="edgeStyle=orthogonalEdgeStyle;rounded=0;orthogonalLoop=1;jettySize=auto;html=1;exitX=0.5;exitY=1;exitDx=0;exitDy=0;entryX=0.5;entryY=0;entryDx=0;entryDy=0;" edge="1" parent="WIyWlLk6GJQsqaUBKTNV-1" source="SEaOPAh_OnX27pPv8bRk-15" target="SEaOPAh_OnX27pPv8bRk-4">
          <mxGeometry relative="1" as="geometry" />
        </mxCell>
        <mxCell id="SEaOPAh_OnX27pPv8bRk-11" style="edgeStyle=orthogonalEdgeStyle;rounded=0;orthogonalLoop=1;jettySize=auto;html=1;exitX=1;exitY=0.5;exitDx=0;exitDy=0;entryX=0;entryY=0.5;entryDx=0;entryDy=0;" edge="1" parent="WIyWlLk6GJQsqaUBKTNV-1" source="SEaOPAh_OnX27pPv8bRk-17" target="SEaOPAh_OnX27pPv8bRk-10">
          <mxGeometry relative="1" as="geometry" />
        </mxCell>
        <mxCell id="SEaOPAh_OnX27pPv8bRk-1" value="循环遍历数组arr的元素，判断是否在phoenix 的 id mapping表中" style="rhombus;whiteSpace=wrap;html=1;" vertex="1" parent="WIyWlLk6GJQsqaUBKTNV-1">
          <mxGeometry x="220" y="440" width="120" height="110" as="geometry" />
        </mxCell>
        <mxCell id="SEaOPAh_OnX27pPv8bRk-13" style="edgeStyle=orthogonalEdgeStyle;rounded=0;orthogonalLoop=1;jettySize=auto;html=1;exitX=0.5;exitY=1;exitDx=0;exitDy=0;entryX=0.5;entryY=0;entryDx=0;entryDy=0;" edge="1" parent="WIyWlLk6GJQsqaUBKTNV-1" source="SEaOPAh_OnX27pPv8bRk-3" target="SEaOPAh_OnX27pPv8bRk-12">
          <mxGeometry relative="1" as="geometry" />
        </mxCell>
        <mxCell id="SEaOPAh_OnX27pPv8bRk-3" value="获取源表最大union_id，对这部分数据集自增生成新的union_id，返回dataframe df" style="rounded=1;whiteSpace=wrap;html=1;" vertex="1" parent="WIyWlLk6GJQsqaUBKTNV-1">
          <mxGeometry x="210" y="180" width="140" height="90" as="geometry" />
        </mxCell>
        <mxCell id="SEaOPAh_OnX27pPv8bRk-4" value="回写到phoenix中的id mapping表" style="rounded=1;whiteSpace=wrap;html=1;" vertex="1" parent="WIyWlLk6GJQsqaUBKTNV-1">
          <mxGeometry x="220" y="640" width="120" height="60" as="geometry" />
        </mxCell>
        <mxCell id="SEaOPAh_OnX27pPv8bRk-10" value="continue，跳过该元素" style="rounded=1;whiteSpace=wrap;html=1;" vertex="1" parent="WIyWlLk6GJQsqaUBKTNV-1">
          <mxGeometry x="440" y="465" width="120" height="60" as="geometry" />
        </mxCell>
        <mxCell id="SEaOPAh_OnX27pPv8bRk-14" style="edgeStyle=orthogonalEdgeStyle;rounded=0;orthogonalLoop=1;jettySize=auto;html=1;exitX=0.5;exitY=1;exitDx=0;exitDy=0;entryX=0.5;entryY=0;entryDx=0;entryDy=0;" edge="1" parent="WIyWlLk6GJQsqaUBKTNV-1" source="SEaOPAh_OnX27pPv8bRk-12" target="SEaOPAh_OnX27pPv8bRk-1">
          <mxGeometry relative="1" as="geometry" />
        </mxCell>
        <mxCell id="SEaOPAh_OnX27pPv8bRk-12" value="将dataframe collect到driver， 返回数组arr" style="rounded=1;whiteSpace=wrap;html=1;" vertex="1" parent="WIyWlLk6GJQsqaUBKTNV-1">
          <mxGeometry x="220" y="320" width="120" height="60" as="geometry" />
        </mxCell>
        <mxCell id="SEaOPAh_OnX27pPv8bRk-15" value="否" style="text;html=1;strokeColor=none;fillColor=none;align=center;verticalAlign=middle;whiteSpace=wrap;rounded=0;" vertex="1" parent="WIyWlLk6GJQsqaUBKTNV-1">
          <mxGeometry x="260" y="585" width="40" height="20" as="geometry" />
        </mxCell>
        <mxCell id="SEaOPAh_OnX27pPv8bRk-16" style="edgeStyle=orthogonalEdgeStyle;rounded=0;orthogonalLoop=1;jettySize=auto;html=1;exitX=0.5;exitY=1;exitDx=0;exitDy=0;entryX=0.5;entryY=0;entryDx=0;entryDy=0;" edge="1" parent="WIyWlLk6GJQsqaUBKTNV-1" source="SEaOPAh_OnX27pPv8bRk-1" target="SEaOPAh_OnX27pPv8bRk-15">
          <mxGeometry relative="1" as="geometry">
            <mxPoint x="280" y="550" as="sourcePoint" />
            <mxPoint x="280" y="640" as="targetPoint" />
          </mxGeometry>
        </mxCell>
        <mxCell id="SEaOPAh_OnX27pPv8bRk-17" value="是" style="text;html=1;strokeColor=none;fillColor=none;align=center;verticalAlign=middle;whiteSpace=wrap;rounded=0;" vertex="1" parent="WIyWlLk6GJQsqaUBKTNV-1">
          <mxGeometry x="373.5" y="485" width="40" height="20" as="geometry" />
        </mxCell>
        <mxCell id="SEaOPAh_OnX27pPv8bRk-18" style="edgeStyle=orthogonalEdgeStyle;rounded=0;orthogonalLoop=1;jettySize=auto;html=1;exitX=1;exitY=0.5;exitDx=0;exitDy=0;entryX=0;entryY=0.5;entryDx=0;entryDy=0;" edge="1" parent="WIyWlLk6GJQsqaUBKTNV-1" source="SEaOPAh_OnX27pPv8bRk-1" target="SEaOPAh_OnX27pPv8bRk-17">
          <mxGeometry relative="1" as="geometry">
            <mxPoint x="340" y="495" as="sourcePoint" />
            <mxPoint x="440" y="495" as="targetPoint" />
          </mxGeometry>
        </mxCell>
        <mxCell id="SEaOPAh_OnX27pPv8bRk-23" style="edgeStyle=orthogonalEdgeStyle;rounded=0;orthogonalLoop=1;jettySize=auto;html=1;exitX=0.5;exitY=1;exitDx=0;exitDy=0;entryX=0.5;entryY=0;entryDx=0;entryDy=0;" edge="1" parent="WIyWlLk6GJQsqaUBKTNV-1" source="SEaOPAh_OnX27pPv8bRk-21" target="SEaOPAh_OnX27pPv8bRk-3">
          <mxGeometry relative="1" as="geometry" />
        </mxCell>
        <mxCell id="SEaOPAh_OnX27pPv8bRk-21" value="关联从phoenix拉下到集群的id mapping，获得关联不上的customers_id数据集" style="rounded=1;whiteSpace=wrap;html=1;" vertex="1" parent="WIyWlLk6GJQsqaUBKTNV-1">
          <mxGeometry x="220" y="80" width="120" height="60" as="geometry" />
        </mxCell>
      </root>
    </mxGraphModel>
  </diagram>
</mxfile>
